<?xml version="1.0" standalone="no"?>
<!DOCTYPE svg PUBLIC "-//W3C//DTD SVG 20010904//EN"
 "http://www.w3.org/TR/2001/REC-SVG-20010904/DTD/svg10.dtd">
<svg version="1.0" xmlns="http://www.w3.org/2000/svg"
 width="120.000000pt" height="120.000000pt" viewBox="0 0 120.000000 120.000000"
 preserveAspectRatio="xMidYMid meet">
<metadata>
Created by potrace 1.11, written by Peter Selinger 2001-2013
</metadata>
<g transform="translate(0.000000,120.000000) scale(0.100000,-0.100000)"
fill="#000000" stroke="none">
<path d="M820 1080 c0 -5 5 -10 10 -10 6 0 10 5 10 10 0 6 -4 10 -10 10 -5 0
-10 -4 -10 -10z"/>
<path d="M706 1048 c-20 -28 -4 -58 30 -58 33 0 49 37 26 63 -20 23 -38 22
-56 -5z"/>
<path d="M885 1050 c-3 -5 -1 -10 4 -10 6 0 11 5 11 10 0 6 -2 10 -4 10 -3 0
-8 -4 -11 -10z"/>
<path d="M413 1008 c-58 -22 -100 -61 -124 -115 -13 -28 -33 -49 -62 -66 -104
-62 -157 -154 -151 -262 4 -77 24 -124 71 -170 23 -22 37 -44 35 -55 -4 -25
23 -77 47 -90 11 -5 31 -10 45 -10 14 0 33 -10 44 -25 22 -28 67 -48 91 -41
69 21 274 24 343 6 23 -7 56 -9 74 -5 38 7 74 47 74 81 0 21 4 23 29 18 16 -3
38 -1 51 6 27 14 51 69 43 98 -4 16 3 28 25 47 43 36 83 122 89 193 7 76 -17
157 -64 211 -36 43 -119 88 -168 92 -16 2 -39 11 -51 21 -32 28 -88 34 -120
13 -25 -16 -27 -16 -53 9 -61 58 -179 78 -268 44z m161 -112 c18 -8 54 -34 79
-59 61 -62 147 -102 162 -77 3 5 0 10 -8 10 -8 0 -20 6 -26 14 -14 17 5 26 54
26 95 0 165 -73 165 -172 0 -78 -47 -144 -126 -174 -37 -14 -48 -15 -75 -4
l-31 13 21 16 c30 23 61 72 60 96 0 19 -1 19 -9 -1 -10 -26 -66 -74 -88 -75
-9 0 -25 -2 -35 -4 -54 -10 -133 39 -153 96 l-12 34 -1 -40 c-1 -22 6 -51 15
-63 14 -20 14 -23 -1 -28 -8 -4 -44 -4 -79 -2 -50 3 -71 10 -100 31 -47 36
-47 18 1 -23 l37 -33 -34 -27 c-30 -24 -38 -26 -74 -18 -27 6 -53 21 -78 47
-61 65 -63 148 -5 216 l33 38 17 -26 c17 -26 74 -63 84 -54 2 3 0 15 -7 26
-16 31 -15 103 3 137 42 81 129 114 211 80z m167 -478 c34 -15 35 -17 37 -71
l1 -56 -42 16 c-62 23 -190 24 -256 1 -30 -10 -56 -18 -58 -18 -1 0 -2 25 -2
55 1 30 2 55 3 55 1 0 26 9 56 20 44 17 72 20 140 17 47 -3 101 -11 121 -19z"/>
<path d="M812 1018 c5 -15 28 -18 29 -3 0 6 -7 12 -17 13 -10 3 -15 -1 -12
-10z"/>
<path d="M875 980 c-3 -5 -4 -14 0 -20 8 -13 35 -1 35 16 0 16 -26 19 -35 4z"/>
<path d="M130 960 c0 -5 5 -10 10 -10 6 0 10 5 10 10 0 6 -4 10 -10 10 -5 0
-10 -4 -10 -10z"/>
<path d="M270 960 c0 -5 5 -10 11 -10 5 0 7 5 4 10 -3 6 -8 10 -11 10 -2 0 -4
-4 -4 -10z"/>
<path d="M176 944 c-21 -20 -20 -47 2 -67 15 -13 22 -14 42 -4 31 16 39 56 14
74 -23 17 -39 16 -58 -3z"/>
<path d="M114 887 c-8 -21 2 -35 16 -21 5 5 6 15 0 24 -8 12 -10 12 -16 -3z"/>
<path d="M165 840 c-3 -5 -1 -10 4 -10 6 0 11 5 11 10 0 6 -2 10 -4 10 -3 0
-8 -4 -11 -10z"/>
<path d="M1070 385 c-23 -28 9 -72 45 -59 36 14 24 74 -15 74 -10 0 -23 -7
-30 -15z"/>
<path d="M78 363 c-22 -6 -33 -40 -18 -58 24 -29 70 -11 70 27 0 20 -27 36
-52 31z"/>
<path d="M1040 320 c0 -5 5 -10 10 -10 6 0 10 5 10 10 0 6 -4 10 -10 10 -5 0
-10 -4 -10 -10z"/>
<path d="M145 310 c3 -5 8 -10 11 -10 2 0 4 5 4 10 0 6 -5 10 -11 10 -5 0 -7
-4 -4 -10z"/>
<path d="M126 282 c-3 -6 -1 -14 5 -17 15 -10 25 3 12 16 -7 7 -13 7 -17 1z"/>
</g>
</svg>
